<svg xmlns="http://www.w3.org/2000/svg" version="1.1" xmlns:xlink="http://www.w3.org/1999/xlink" xmlns:svgjs="http://svgjs.dev/svgjs" width="2048px" height="2048px"><svg xmlns="http://www.w3.org/2000/svg" xml:space="preserve" width="2048px" height="2048px" style="shape-rendering:geometricPrecision; text-rendering:geometricPrecision; image-rendering:optimizeQuality; fill-rule:evenodd; clip-rule:evenodd" viewBox="0 0 2048 2048" xmlns:xlink="http://www.w3.org/1999/xlink">
 <defs>
  <style type="text/css">
   
    .fil2 {fill:none}
    .fil0 {fill:#212121;fill-rule:nonzero}
    .fil1 {fill:#66BB6A;fill-rule:nonzero}
   
  </style>
 </defs>
 <g id="SvgjsG1011">
  <metadata id="SvgjsMetadata1010"></metadata>
  <g id="SvgjsG1009">
   <path id="SvgjsPath1008" class="fil0" d="M467.455 831.504c0,-17.6043 -14.2713,-31.8756 -31.8756,-31.8756 -17.6043,0 -31.8756,14.2713 -31.8756,31.8756 -0.119291,194.893 113.314,218.613 236.793,244.428 119.437,24.9709 250.478,52.3678 250.478,313.845 0,17.6728 14.328,32.0008 32.0008,32.0008 17.6728,0 32.0008,-14.328 32.0008,-32.0008 0,-313.312 -157.723,-346.289 -301.48,-376.344 -97.0111,-20.2819 -186.129,-38.9162 -186.041,-181.929z"></path>
   <path id="SvgjsPath1007" class="fil0" d="M883.611 553.554c2.48504,-17.465 -9.66024,-33.6402 -27.1252,-36.1252 -17.465,-2.48504 -33.6402,9.66024 -36.1252,27.1252 -35.3256,244.547 60.254,275.47 166.846,309.955 49.8,16.1102 102.645,33.2079 136.422,83.9564 9.73347,14.7047 29.5465,18.7335 44.2512,9.00001 14.7047,-9.73347 18.7335,-29.5465 9.00001,-44.2512 -46.1457,-69.3319 -109.999,-89.9894 -170.173,-109.456 -79.48,-25.7126 -150.748,-48.7713 -123.096,-240.203z"></path>
   <path id="SvgjsPath1006" class="fil0" d="M1566.99 843.379c6.55749,-16.3606 -1.39016,-34.9429 -17.7508,-41.5004 -16.3606,-6.55749 -34.9429,1.39016 -41.5004,17.7508 -67.5414,168.855 -178.336,190.775 -285.072,211.891 -74.5512,14.7473 -147.379,29.1567 -209.504,84.5729 -13.1847,11.7354 -14.3599,31.9406 -2.62441,45.1252 11.7354,13.1847 31.9406,14.3599 45.1252,2.62441 49.1386,-43.8319 113.436,-56.5536 179.254,-69.5729 123.468,-24.4264 251.629,-49.7811 332.073,-250.891z"></path>
  </g>
  <path class="fil0" d="M1301.24 539.1c0,-17.6043 -14.2713,-31.8756 -31.8756,-31.8756 -17.6043,0 -31.8756,14.2713 -31.8756,31.8756 0.142913,234.141 -77.6257,346.95 -162.287,469.757 -107.264,155.594 -224.953,326.307 -224.953,751.144 0,17.6728 14.328,32.0008 32.0008,32.0008 17.6728,0 32.0008,-14.328 32.0008,-32.0008 0,-405.27 111.672,-567.256 213.451,-714.893 90.5327,-131.322 173.694,-251.954 173.538,-506.007z"></path>
  <path class="fil1" d="M1398.14 280.249c31.513,125.539 12.4205,202.836 -22.4315,243.046 -33.2575,38.3717 -79.8508,45.254 -117.443,29.8181 -37.6004,-15.4394 -65.9197,-53.0445 -62.6197,-103.635 3.46299,-53.08 44.2382,-121.495 154.994,-188.73l36.9709 -22.4433 10.5295 41.9433zm-70.6819 201.297c19.474,-22.4693 30.4075,-66.867 18.0886,-141.111 -60.828,44.1059 -84.2138,83.3623 -86.1497,113.043 -1.31811,20.2181 9.15473,34.9004 23.1189,40.6347 13.9736,5.7378 31.7233,2.68465 44.9422,-12.5669z"></path>
  <path class="fil1" d="M1601.64 580.413c64.9949,91.4658 66.365,166.238 43.4398,215.223 -18.7536,40.0725 -54.1252,63.5481 -87.4276,67.2697 -39.0638,4.36536 -75.0851,-15.1878 -86.1142,-62.393 -10.2366,-43.8071 5.7626,-116.395 77.8524,-219.851l25.9559 -37.2496 26.2937 37.0004zm-14.3114 188.223c11.5134,-24.6024 11.8335,-61.6241 -12.489,-109.898 -37.4114,62.3256 -46.6264,103.414 -41.0504,127.276 2.33858,10.0122 9.36497,14.2288 16.8638,13.3913 13.2591,-1.4811 27.978,-12.1831 36.6756,-30.7689z"></path>
  <path class="fil1" d="M960.317 326.303c27.3437,108.926 10.4551,176.362 -20.1555,211.682 -29.8571,34.4504 -71.7473,40.604 -105.567,26.7189 -33.8292,-13.891 -59.3115,-47.6729 -56.3493,-93.0839 3.04134,-46.6205 38.4567,-106.469 134.571,-164.817l36.9721 -22.4433 10.5284 41.9433zm-68.406 169.932c15.2067,-17.5465 23.9209,-51.9225 15.5539,-109.112 -46.0335,34.7528 -63.9567,65.3174 -65.4686,88.4953 -0.980316,15.039 6.65552,25.8981 16.8484,30.0839 10.2024,4.18819 23.2465,1.8626 33.0662,-9.46772z"></path>
  <path class="fil1" d="M1106.46 565.732c-8.67993,112.091 -46.1162,170.714 -86.3635,194.484 -39.2398,23.1744 -80.9221,15.6898 -108.598,-8.23583 -27.6225,-23.8795 -41.015,-63.9934 -23.7685,-106.145 17.7142,-43.2922 70.2886,-88.832 179.854,-113.604l42.2091 -9.54331 -3.33307 43.0441zm-118.863 139.485c19.9949,-11.8087 39.1737,-41.615 49.3985,-98.4355 -54.7666,18.3354 -81.4843,41.5961 -90.2646,63.0544 -5.69292,13.9146 -1.86142,26.6504 6.51733,33.8941 8.3256,7.19646 21.4252,9.1193 34.3488,1.48701z"></path>
  <path class="fil1" d="M555.792 664.084c88.4009,-69.4406 156.868,-81.5434 201.569,-67.9997 43.6063,13.2118 66.2953,49.0276 67.4044,85.669 1.10551,36.5185 -19.4067,73.5532 -62.1898,89.4012 -43.7386,16.2012 -112.747,8.25001 -205.159,-55.6949l-35.6362 -24.6591 34.011 -26.7166zm183.069 -6.75001c-22.2355,-6.73701 -57.1595,-0.708662 -105.892,30.1666 50.517,27.8516 85.7764,31.7398 107.608,23.654 14.0256,-5.19567 20.7721,-16.6016 20.4378,-27.6508 -0.330709,-10.9264 -7.78229,-21.815 -22.154,-26.1697z"></path>
  <path class="fil1" d="M1364.26 694.578c82.6583,75.867 99.619,148.675 87.4394,201.336 -9.96024,43.0607 -39.7016,73.402 -71.569,84.0237 -37.2626,12.4181 -76.5343,0.853938 -97.1434,-42.926 -19.1492,-40.6796 -18.6461,-115.01 30.2729,-231.308l17.5807 -41.7969 33.4193 30.6721zm25.1882 187.084c6.12756,-26.4945 -1.29213,-62.8028 -35.1839,-104.956 -23.5571,68.7438 -23.974,110.86 -13.526,133.055 4.41615,9.3815 12.2055,12.0697 19.3914,9.6756 12.5787,-4.19292 24.6839,-17.7343 29.3185,-37.774z"></path>
  <path class="fil1" d="M1670.36 1137.25c-90.1442,66.7678 -164.854,69.6119 -214.263,47.6646 -40.4363,-17.9622 -64.6063,-52.8591 -68.9823,-86.0729 -5.13662,-38.9918 13.6795,-75.404 60.6189,-87.3509 43.5355,-11.0823 116.408,3.52205 221.375,73.6335l37.6618 25.1563 -36.4111 26.9693zm-188.512 -10.585c24.8528,11.0398 61.9229,10.6252 109.767,-14.6965 -63.0249,-36.1536 -104.324,-44.537 -128.13,-38.4768 -10.0039,2.54646 -14.1024,9.64016 -13.1197,17.0988 1.74331,13.2354 12.7311,27.7453 31.4823,36.0744z"></path>
  <path class="fil1" d="M902.441 872.938c87.1135,8.99056 130.028,51.9095 145.44,98.7343 13.4492,40.8555 4.63111,84.9426 -14.4071,112.839 -25.3087,37.0819 -65.3788,51.2008 -104.27,16.4634 -27.6473,-24.6945 -53.0882,-83.2028 -61.8886,-193.786l-3.03898 -38.1898 38.165 3.93898zm84.6886 118.735c-6.13937,-18.6508 -21.8221,-36.3307 -51.6119,-46.8142 8.40591,63.3071 22.0559,95.9942 36.1866,108.617 2.35276,2.10118 6.013,-0.559843 9.0189,-4.96418 9.2752,-13.591 13.363,-35.7036 6.4063,-56.8382z"></path>
  <path class="fil1" d="M1130.1 1313.79c18.3603,-25.8154 20.9929,-49.3512 15.2398,-68.1603 -6.49016,-21.2197 -22.6075,-36.9095 -38.0622,-42.6744 -4.97953,-1.85669 -9.49016,-1.91103 -10.2012,1.17165 -4.27677,18.5221 3.40748,53.1272 33.0236,109.663zm76.239 -86.6611c14.4106,47.113 4.13504,106.873 -61.741,164.382l-28.924 25.2484 -19.5756 -32.9988c-56.6103,-95.4284 -69.5953,-157.84 -61.2733,-193.885 11.7284,-50.7981 52.6205,-62.3693 94.702,-46.6701 31.6051,11.7898 64.2142,42.7359 76.8119,83.9233z"></path>
  <path class="fil1" d="M450.695 1160.36c27.2516,16.1847 50.9327,16.8638 69.2056,9.57284 20.5701,-8.20867 34.8555,-25.578 39.3284,-41.4792 1.43622,-5.10709 1.14331,-9.59646 -1.92992,-10.0417 -18.8551,-2.73425 -52.7327,7.7752 -106.604,41.9481zm92.7048 68.8241c-45.776,18.2658 -106.205,12.9673 -169.005,-47.9611l-27.4795 -26.6622 31.2296 -22.213c90.4843,-64.3607 151.592,-82.4894 188.154,-77.1863 51.6544,7.49292 66.5965,47.2985 54.43,90.5434 -9.12757,32.4508 -37.2839,67.5001 -77.3292,83.4792z"></path>
  <path class="fil1" d="M627.254 873.739c-34.6689,15.3614 -43.6052,34.0642 -39.6614,48.8859 2.17677,8.18386 7.59095,15.5079 14.2736,20.4815 5.23465,3.89528 10.5024,6.04016 14.2536,5.27126 10.8484,-2.22166 18.2055,-22.6299 11.1343,-74.6386zm-101.412 65.1355c-13.0264,-48.9638 9.72166,-109.355 118.322,-138.246l32.5796 -8.66694 6.79489 33.1666c25.7374,125.616 -10.7256,176.746 -54.6674,185.749 -22.4032,4.58977 -45.9378,-2.32795 -65.0056,-16.5201 -17.6197,-13.1138 -32.0185,-32.9126 -38.0233,-55.4823z"></path>
  <path class="fil1" d="M715.464 1281.09c25.5225,-18.7949 35.3658,-40.3382 35.7603,-60.0012 0.445276,-22.2024 -9.97087,-42.1335 -22.8508,-52.4209 -4.1563,-3.32008 -8.42363,-4.79528 -10.0429,-2.11654 -9.86457,16.3146 -13.376,51.6189 -2.86654,114.539zm99.5115 -58.7516c-0.988583,49.2957 -29.4047,102.921 -110.006,137.073l-35.1933 14.9114 -8.30788 -37.4114c-24.0732,-108.418 -16.9973,-171.757 2.11063,-203.36 26.9918,-44.6433 69.456,-42.9107 104.545,-14.8843 26.3646,21.0591 47.7154,60.6237 46.8508,103.671z"></path>
  <path class="fil1" d="M788.52 875.196c-21.9354,22.8236 -27.9815,45.7075 -25.0488,65.1461 3.31536,21.9768 16.9122,39.8481 31.2922,47.7815 4.66418,2.57362 9.12402,3.30827 10.2661,0.396851 6.96497,-17.7461 4.46339,-53.1213 -16.5095,-113.324zm-88.2993 74.6469c-7.35473,-48.7441 11.589,-106.397 85.2674,-153.688l32.2075 -20.6717 14.5429 35.5465c42.0449,102.764 45.7772,166.374 32.2902,200.741 -19.0606,48.5681 -61.2024,54.0414 -100.517,32.3528 -29.5973,-16.3299 -57.3709,-51.7276 -63.7914,-94.2816z"></path>
 </g>
 <rect class="fil2" width="2048" height="2048"></rect>
</svg><style>@media (prefers-color-scheme: light) { :root { filter: none; } }
@media (prefers-color-scheme: dark) { :root { filter: none; } }
</style></svg>